<svg width="32" height="33" fill="none" xmlns="http://www.w3.org/2000/svg"><circle cx="21.2" cy="11.33" fill="#fff" r="1.09"/><circle cx="10.33" cy="11.33" fill="#fff" r="1.09"/><circle cx="10.33" cy="24.35" fill="#fff" r="1.09"/><circle cx="15.77" cy="26.52" fill="#fff" r="1.09"/><circle cx="7.07" cy="17.77" fill="#fff" r="1.09"/><circle cx="24.47" cy="17.77" fill="#fff" r="1.09"/><circle cx="21.2" cy="24.35" fill="#fff" r="1.09"/><mask id="a" fill="#fff"><path fill-rule="evenodd" clip-rule="evenodd" d="M20.92 29.06c.41-.2.9-.13 1.22.2l1.82 1.87a.68.68 0 0 0 .98-.95l-1.36-1.4c-.42-.43-.36-1.14.1-1.55A12.75 12.75 0 0 0 28 17.61C28 10.65 22.52 5 15.77 5 9 5 3.54 10.65 3.54 17.61c0 3.82 1.64 7.24 4.23 9.55.45.4.51 1.11.1 1.55l-1.44 1.47a.68.68 0 1 0 .97.95l1.88-1.93c.32-.33.82-.4 1.23-.2a11.88 11.88 0 0 0 10.41.06Zm-5.15-.23c6 0 10.87-5.02 10.87-11.22 0-6.19-4.87-11.2-10.87-11.2-6 0-10.88 5.01-10.88 11.2 0 6.2 4.87 11.22 10.88 11.22ZM15 17.3V9.94a.78.78 0 1 1 1.56 0v8.18a.8.8 0 0 1-.8.8.76.76 0 0 1-.76-.75V17.3Z"/></mask><path fill-rule="evenodd" clip-rule="evenodd" d="M20.92 29.06c.41-.2.9-.13 1.22.2l1.82 1.87a.68.68 0 0 0 .98-.95l-1.36-1.4c-.42-.43-.36-1.14.1-1.55A12.75 12.75 0 0 0 28 17.61C28 10.65 22.52 5 15.77 5 9 5 3.54 10.65 3.54 17.61c0 3.82 1.64 7.24 4.23 9.55.45.4.51 1.11.1 1.55l-1.44 1.47a.68.68 0 1 0 .97.95l1.88-1.93c.32-.33.82-.4 1.23-.2a11.88 11.88 0 0 0 10.41.06Zm-5.15-.23c6 0 10.87-5.02 10.87-11.22 0-6.19-4.87-11.2-10.87-11.2-6 0-10.88 5.01-10.88 11.2 0 6.2 4.87 11.22 10.88 11.22ZM15 17.3V9.94a.78.78 0 1 1 1.56 0v8.18a.8.8 0 0 1-.8.8.76.76 0 0 1-.76-.75V17.3Z" fill="#fff"/><path d="m9.28 29.2 2.87 2.79-2.87-2.8Zm1.23-.2 1.77-3.58L10.5 29Zm-3.1 2.13-2.87-2.8 2.86 2.8Zm-.98-.95 2.86 2.79-2.86-2.8Zm17.15-1.4-2.86 2.8 2.86-2.8Zm.1-1.55-2.63-3 2.63 3Zm-15.9-.07L5.1 30.15l2.66-2.99Zm.08 1.55L5 25.9l2.86 2.8Zm17.08 1.47 2.87-2.8-2.87 2.8Zm-.98.95 2.87-2.8-2.87 2.8Zm-1.82-1.88-2.87 2.8 2.87-2.8Zm-1.22-.2-1.73-3.6 1.73 3.6Zm-1.65 3 1.83 1.87 5.73-5.58L25 26.46l-5.73 5.58Zm8.54-4.66-1.36-1.4-5.73 5.59 1.36 1.39 5.73-5.58Zm-1.5 2.85A16.75 16.75 0 0 0 32 17.61h-8a8.75 8.75 0 0 1-2.95 6.61l5.27 6.02ZM32 17.61C32 8.56 24.85 1 15.77 1v8C20.2 9 24 12.74 24 17.61h8ZM15.77 1C6.69 1-.46 8.56-.46 17.61h8c0-4.87 3.8-8.61 8.23-8.61V1ZM-.46 17.61c0 4.98 2.14 9.48 5.57 12.54l5.32-5.97a8.75 8.75 0 0 1-2.9-6.57h-8ZM5 25.91 3.56 27.4l5.73 5.58 1.44-1.47L5 25.9Zm5.27 8.01 1.88-1.93-5.73-5.58-1.88 1.93 5.73 5.58ZM8.75 32.6a15.88 15.88 0 0 0 7.02 1.63v-8a7.88 7.88 0 0 1-3.5-.81L8.76 32.6Zm7.02 1.63c2.45 0 4.79-.56 6.88-1.57l-3.46-7.2c-1.04.5-2.2.77-3.42.77v8Zm0-1.4c8.33 0 14.87-6.93 14.87-15.22h-8c0 4.1-3.2 7.22-6.87 7.22v8ZM30.64 17.6c0-8.28-6.54-15.2-14.87-15.2v8c3.68 0 6.87 3.1 6.87 7.2h8ZM15.77 2.41C7.44 2.4.89 9.32.89 17.6h8c0-4.1 3.2-7.2 6.88-7.2v-8ZM.89 17.6c0 8.29 6.55 15.22 14.88 15.22v-8c-3.68 0-6.88-3.11-6.88-7.22h-8Zm11.68-.31v.54h8v-.54h-8Zm0 .54v.28h8v-.28h-8Zm6.44.33v-.33h-8v.33h8Zm0-.33v-.54h-8v.54h8Zm0-.54v-3.8h-8v3.8h8Zm0-3.8V9.94h-8v3.56h8Zm-6.44-3.56v3.56h8V9.94h-8Zm0 3.56v3.8h8v-3.8h-8Zm3.22-8.34A4.78 4.78 0 0 0 11 9.94h8a3.22 3.22 0 0 1-3.22 3.22v-8Zm-3.22 12.96a3.2 3.2 0 0 1 3.2-3.2v8a4.8 4.8 0 0 0 4.8-4.8h-8ZM12.15 32c-1 1.02-2.4 1.1-3.4.6l3.53-7.17a5.06 5.06 0 0 0-5.86.99l5.73 5.58Zm-8.59 1.93a4.68 4.68 0 0 0 6.71 0l-5.73-5.58a3.32 3.32 0 0 1 4.75 0l-5.73 5.58Zm0-6.53a4.68 4.68 0 0 0 0 6.53l5.73-5.58a3.32 3.32 0 0 1 0 4.63l-5.73-5.58Zm22.89-1.4a2.93 2.93 0 0 1-.13 4.25l-5.27-6.02a5.08 5.08 0 0 0-.33 7.36l5.73-5.59ZM15.79 13.16a3.22 3.22 0 0 1-3.22-3.22h8a4.78 4.78 0 0 0-4.78-4.78v8ZM5.11 30.15A2.93 2.93 0 0 1 5 25.9l5.73 5.59a5.07 5.07 0 0 0-.3-7.32l-5.32 5.97Zm22.7 3.77a4.68 4.68 0 0 0 0-6.53l-5.73 5.58a3.32 3.32 0 0 1 0-4.63l5.73 5.58Zm-6.71 0a4.68 4.68 0 0 0 6.7 0l-5.72-5.58a3.32 3.32 0 0 1 4.75 0l-5.73 5.58Zm-5.33-19A3.24 3.24 0 0 1 19 18.18h-8a4.76 4.76 0 0 0 4.76 4.76v-8ZM25 26.47a5.06 5.06 0 0 0-5.8-1l3.45 7.2c-1 .49-2.4.4-3.38-.62L25 26.46Z" fill="#fff" mask="url(#a)"/><path fill="#fff" d="M15 6V2h1.5v4z"/><rect x="8" y="2" width="15.5" height="1.5" rx=".75" fill="#fff"/></svg>