<svg width="102" height="19" fill="none" xmlns="http://www.w3.org/2000/svg"><g clip-path="url(#a)" fill="#111"><path d="M1.43 17.34a6.86 6.86 0 01-1.27-4.3V6.65a6.9 6.9 0 011.19-4.38C2.22 1.27 3.55.8 5.53.8c1.98 0 3.25.47 4.04 1.31a5.42 5.42 0 011.18 3.77v1.54H6.88V5.65a3.7 3.7 0 00-.24-1.54 1.16 1.16 0 00-1.1-.62c-.56 0-.95.16-1.11.55a4.85 4.85 0 00-.24 1.69v8.23c-.04.55.07 1.11.32 1.61.16.39.55.54 1.1.54.56 0 .87-.15 1.03-.54.18-.52.26-1.06.24-1.61V12.1h3.87v1.54a5.78 5.78 0 01-1.18 3.85c-.8.92-2.14 1.38-4.04 1.38-1.9-.07-3.31-.54-4.1-1.54zm13.98-16.3h4.5l3.33 17.53H19.6l-.63-3.69h-2.6l-.64 3.7h-3.71l3.4-17.54zm3.24 11.53l-.94-6.84-.95 6.84h1.9zM26 3.96h-2.68V1.04h9.4v2.84h-2.69v14.7H26V3.95zm13.91-2.92h6.96v1.84h-4.5v5.77H46v1.77h-3.64v6.46h4.5v1.77h-7.03V1.04h.08zm9.01 0h1.74l5.14 11.61V1.04h2.05v17.53h-1.58l-5.21-12v12h-2.14V1.04zm11.3 0h6.96v1.84h-4.5v5.77h3.63v1.77h-3.64v6.46h4.5v1.77h-6.95V1.04zm9.01 0h3.64c1.43-.1 2.85.28 4.03 1.07.87.7 1.26 1.93 1.26 3.54 0 2.23-.7 3.62-2.21 4.08l2.53 8.77h-2.45l-2.37-8.23h-1.98v8.23h-2.53V1.04h.08zm3.48 7.53c.81.07 1.63-.15 2.3-.61.47-.39.7-1.16.7-2.3a4.85 4.85 0 00-.23-1.7c-.18-.4-.49-.72-.87-.92a3.69 3.69 0 00-1.74-.31h-1.1V8.5h.94v.07zm8.61 8.7a7.61 7.61 0 01-1.1-4.46V6.96c-.02-1.12.11-2.23.4-3.3.26-.82.78-1.52 1.5-2 .88-.52 1.9-.76 2.92-.7 1.66 0 2.84.38 3.55 1.23a5.77 5.77 0 011.11 3.85v.61h-2.37v-.54c0-.64-.05-1.28-.16-1.92-.06-.4-.3-.76-.63-1a2.5 2.5 0 00-1.5-.39 2.42 2.42 0 00-1.58.47 1.75 1.75 0 00-.63 1.23c-.1.68-.16 1.38-.16 2.07v6.54c-.06 1 .1 2 .47 2.93.32.61.95.84 1.9.84a1.96 1.96 0 001.9-.92c.41-.97.6-2.03.55-3.08v-1.23h-2.3V9.88h4.6v8.7H88.2l-.24-2c-.2.66-.64 1.25-1.22 1.65-.59.4-1.3.6-2.02.57a4.05 4.05 0 01-3.4-1.53zm13.52-4.85l-3.87-11.3h2.37l2.76 8.45 2.69-8.46h2.37L97.3 12.42v6.15h-2.37v-6.15h-.08z"/></g><defs><clipPath id="a"><path fill="#fff" transform="translate(.16 .8)" d="M0 0h101v18H0z"/></clipPath></defs></svg>